<?xml version="1.0" encoding="utf-8"?>
<!-- Generator: Adobe Illustrator 27.2.0, SVG Export Plug-In . SVG Version: 6.00 Build 0)  -->
<svg version="1.1" id="Layer_1" xmlns="http://www.w3.org/2000/svg" xmlns:xlink="http://www.w3.org/1999/xlink" x="0px" y="0px"
	 viewBox="0 0 22.9 22.9" style="enable-background:new 0 0 22.9 22.9;" xml:space="preserve">
<style type="text/css">
	.st0{fill:#283A43;}
	.st1{fill:none;stroke:#55BCB1;stroke-miterlimit:10;}
	.st2{fill:#FFFFFF;}
</style>
<g id="Layer_1_00000177469828665369720860000005244573771737274240_">
	<rect class="st0" width="22.9" height="22.9"/>
	<line class="st1" x1="6.2" y1="12.1" x2="22.9" y2="12.1"/>
	<g>
		<path class="st2" d="M6.5,2.7H8l3.3,7.9H9.7L8.8,8.5h-3l-0.9,2.1H3.2L6.5,2.7z M8.2,7L7.3,4.9L6.4,7H8.2z"/>
		<path class="st2" d="M12.3,2.7h3.6c0.9,0,1.5,0.2,2,0.7c0.4,0.4,0.6,0.9,0.6,1.5c0,0.7-0.2,1.2-0.6,1.5c0.4,0.2,0.6,0.6,0.8,1
			c0.1,0.2,0.1,0.5,0.1,0.8c0,1-0.6,1.7-1.6,2.1c-0.3,0.1-0.7,0.2-1.2,0.2h-3.8V2.7H12.3z M15.9,5.9c0.7,0,0.9-0.3,1-0.5
			C17,5.3,17,5.2,17,5.1c0-0.1,0-0.3-0.1-0.4c0-0.1-0.1-0.2-0.1-0.2c-0.2-0.2-0.4-0.3-0.8-0.3h-2.1v1.7C13.9,5.9,15.9,5.9,15.9,5.9z
			 M16.1,9c0.4,0,0.7,0,0.9-0.2c0.2-0.1,0.3-0.3,0.3-0.6S17.2,7.8,17,7.6c-0.2-0.2-0.5-0.3-1-0.3h-2.2V9H16.1z"/>
		<path class="st2" d="M4.2,19.4c-0.6-0.4-1.1-1-1.4-1.8L4.4,17l0,0l0.1,0.3c0.2,0.4,0.4,0.7,0.8,0.9c0.4,0.2,0.8,0.3,1.2,0.3
			c0.9,0,1.5-0.3,2-0.8c0.4-0.5,0.6-1.1,0.6-1.9c0-0.8-0.2-1.4-0.6-1.9c-0.2-0.2-0.5-0.4-0.8-0.6c-0.3-0.1-0.7-0.2-1.2-0.2
			s-0.9,0.1-1.2,0.4c-0.3,0.2-0.6,0.5-0.8,1l-0.1,0.2l0,0L2.9,14c0.3-0.7,0.8-1.3,1.4-1.8c0.7-0.5,1.5-0.8,2.5-0.8
			c1.3,0,2.3,0.4,3,1.3c0.7,0.8,1.1,1.8,1.1,3.1c0,1.2-0.4,2.3-1.1,3.1c-0.8,0.9-1.8,1.3-3,1.3C5.8,20.2,4.9,19.9,4.2,19.4z"/>
		<path class="st2" d="M12.6,11.6h4.1c0.9,0,1.6,0.3,2.2,0.8s0.8,1.2,0.8,2.1c0,1.1-0.5,1.9-1.4,2.4c-0.1,0-0.2,0.1-0.2,0.1l2,3.3
			h-2l-1.7-3h-2v3h-1.7L12.6,11.6L12.6,11.6z M16.5,15.5c0.7,0,1.1-0.2,1.4-0.6c0.1-0.1,0.1-0.3,0.1-0.5c0-0.4-0.1-0.6-0.4-0.8
			s-0.6-0.3-1.1-0.3h-2.3v2.3L16.5,15.5L16.5,15.5z"/>
	</g>
</g>
</svg>
