<?xml version="1.0" encoding="utf-8"?>
<!-- Generator: Adobe Illustrator 27.2.0, SVG Export Plug-In . SVG Version: 6.00 Build 0)  -->
<svg version="1.1" id="Layer_1" xmlns="http://www.w3.org/2000/svg" xmlns:xlink="http://www.w3.org/1999/xlink" x="0px" y="0px"
	 viewBox="0 0 73.4 28.4" style="enable-background:new 0 0 73.4 28.4;" xml:space="preserve">
<style type="text/css">
	.st0{fill:#5EADA9;}
	.st1{fill:none;}
	.st2{fill:#283A43;}
</style>
<g id="Layer_1_00000090268540523600471210000018072386407379229595_">
	<g>
		<rect x="48.9" y="11.3" class="st0" width="19.3" height="1.7"/>
		<line class="st1" x1="34.9" y1="19" x2="34.3" y2="20.7"/>
		<g>
			<g>
				<g>
					<g>
						<path class="st2" d="M8.9,5.5h1.5l3.3,7.9H12l-0.9-2.1h-3l-0.9,2.1H5.5L8.9,5.5z M10.5,9.8L9.6,7.6L8.7,9.8H10.5z"/>
					</g>
				</g>
				<g>
					<g>
						<path class="st2" d="M14.6,5.5h3.6c0.9,0,1.5,0.2,2,0.7c0.4,0.4,0.6,0.9,0.6,1.5c0,0.7-0.2,1.2-0.6,1.5c0.4,0.2,0.6,0.6,0.8,1
							c0.1,0.2,0.1,0.5,0.1,0.8c0,1-0.6,1.7-1.6,2.1c-0.3,0.1-0.7,0.2-1.2,0.2h-3.8V5.5H14.6z M18.2,8.6c0.7,0,0.9-0.3,1-0.5
							c0.1-0.1,0.1-0.2,0.1-0.3c0-0.1,0-0.3-0.1-0.4c0-0.1-0.1-0.2-0.1-0.2C18.9,7.1,18.7,7,18.3,7h-2.1v1.7L18.2,8.6L18.2,8.6z
							 M18.5,11.8c0.4,0,0.7-0.1,0.9-0.2c0.2-0.1,0.3-0.3,0.3-0.6s-0.1-0.4-0.3-0.6c-0.2-0.2-0.5-0.3-1-0.3h-2.2v1.7
							C16.2,11.8,18.5,11.8,18.5,11.8z"/>
					</g>
				</g>
				<g>
					<g>
						<path class="st2" d="M22.5,5.5h3.8c0.8,0,1.5,0.2,2,0.7s0.8,1.1,0.8,1.9c0,1-0.5,1.8-1.3,2.2c-0.1,0-0.1,0.1-0.2,0.1l1.8,3
							h-1.8L26,10.7h-1.9v2.7h-1.6C22.5,13.4,22.5,5.5,22.5,5.5z M26.1,9.1c0.6,0,1-0.2,1.3-0.5c0.1-0.1,0.1-0.3,0.1-0.5
							c0-0.3-0.1-0.6-0.3-0.8C27,7.1,26.6,7,26.2,7h-2.1v2.1H26.1z"/>
					</g>
				</g>
				<g>
					<g>
						<path class="st2" d="M30.7,5.5h6V7h-4.4v1.6h3.2v1.5h-3.2v1.6h4.4v1.5h-6V5.5z"/>
					</g>
				</g>
				<g>
					<g>
						<path class="st2" d="M39.7,12.4c-0.6-0.6-1-1.5-1-2.5V5.4h1.6v4.5c0,0.7,0.2,1.2,0.6,1.5c0.3,0.3,0.7,0.4,1.3,0.4
							c0.5,0,1-0.1,1.3-0.4C43.8,11,44,10.5,44,9.9V5.4h1.5v4.4c0,1-0.3,1.9-1,2.5c-0.6,0.7-1.5,1-2.5,1
							C41.1,13.4,40.3,13,39.7,12.4z"/>
					</g>
				</g>
				<g>
					<g>
						<path class="st2" d="M6.6,22.2c-0.6-0.4-1.1-1-1.4-1.8l1.5-0.7l0,0L6.9,20c0.2,0.4,0.4,0.7,0.8,0.9c0.4,0.2,0.8,0.3,1.2,0.3
							c0.9,0,1.5-0.3,2-0.8c0.4-0.5,0.6-1.1,0.6-1.9s-0.2-1.4-0.6-1.9c-0.2-0.2-0.5-0.4-0.8-0.6c-0.3-0.1-0.7-0.2-1.2-0.2
							S8,15.9,7.7,16.2c-0.3,0.2-0.6,0.5-0.8,1l-0.1,0.2l0,0l-1.5-0.7C5.5,16,6,15.4,6.6,15c0.7-0.5,1.5-0.8,2.5-0.8
							c1.3,0,2.3,0.4,3,1.3c0.7,0.8,1.1,1.8,1.1,3.1s-0.4,2.3-1.1,3.1c-0.8,0.9-1.8,1.3-3,1.3C8.1,23,7.3,22.7,6.6,22.2z"/>
					</g>
				</g>
				<g>
					<g>
						<path class="st2" d="M14.9,14.3H19c0.9,0,1.6,0.3,2.2,0.8s0.8,1.2,0.8,2.1c0,1.1-0.5,1.9-1.4,2.4c-0.1,0-0.2,0.1-0.2,0.1
							l2,3.3h-2l-1.7-3h-2v3H15L14.9,14.3L14.9,14.3z M18.9,18.3c0.7,0,1.1-0.2,1.4-0.6c0.1-0.1,0.1-0.3,0.1-0.5
							c0-0.4-0.1-0.6-0.4-0.8c-0.3-0.2-0.6-0.3-1.1-0.3h-2.3v2.3h2.3V18.3z"/>
					</g>
				</g>
				<g>
					<g>
						<path class="st2" d="M36.7,14.3h-1.6l-3.6,8.5h1.9l0.9-2.2L35,19l1-2.3l1,2.3l0.7,1.6l0.9,2.2h1.9L36.7,14.3z"/>
					</g>
				</g>
				<g>
					<g>
						<path class="st2" d="M43.1,16h-2.7v-1.6h7.1V16h-2.7v6.9h-1.7C43.1,22.9,43.1,16,43.1,16z"/>
					</g>
				</g>
				<g>
					<g>
						<path class="st2" d="M48.9,14.3h1.7v8.5h-1.7V14.3z"/>
					</g>
				</g>
				<g>
					<g>
						<path class="st2" d="M51.9,14.3h1.8l2.4,6l2.4-6h1.8l-3.5,8.5h-1.6L51.9,14.3z"/>
					</g>
				</g>
				<g>
					<g>
						<path class="st2" d="M61.7,14.3h6.5V16h-4.8v1.8h3.5v1.7h-3.5v1.8h4.8V23h-6.5C61.7,23,61.7,14.3,61.7,14.3z"/>
					</g>
				</g>
				<g>
					<g>
						<path class="st2" d="M24.5,14.7h6v1.5h-4.4v1.6h3.2v1.5h-3.2V21h4.4v1.5h-6V14.7z"/>
					</g>
				</g>
				<g>
					<rect x="48.9" y="11.3" class="st2" width="1.7" height="1.7"/>
				</g>
				<g>
					<line class="st1" x1="37.6" y1="20.7" x2="36.9" y2="19"/>
				</g>
			</g>
		</g>
	</g>
</g>
</svg>
